<?xml version="1.0" encoding="UTF-8"?><svg id="Layer_2" xmlns="http://www.w3.org/2000/svg" viewBox="0 0 257.69 246.95"><defs><style>.cls-1{fill:none;stroke:#000;stroke-linecap:round;stroke-linejoin:round;stroke-width:14.17px;}</style></defs><g id="Layer_1-2"><g id="cart-icon"><path id="Path_1" class="cls-1" d="M62.18,190.82h132.59c7.46.74,15,.03,22.19-2.11,4.17-1.84,7.75-4.81,10.32-8.57,3.38-6.69,5.43-13.98,6.04-21.45l16.54-90.96c.76-2.42.94-4.99.53-7.49-.49-1.36-1.44-2.5-2.69-3.22-2.39-.88-4.94-1.18-7.47-.88H43.82M7.09,7.16h16.11c1.9-.19,3.82-.01,5.66.54,1.06.48,1.96,1.25,2.6,2.22.83,1.73,1.31,3.6,1.42,5.51l34.12,216.1c.11,1.91.59,3.78,1.42,5.51.64.97,1.54,1.74,2.6,2.22,1.84.55,3.76.73,5.67.54h138.55"/></g></g></svg>